<?xml version="1.0" encoding="utf-8"?>
<!-- Generator: Adobe Illustrator 23.1.0, SVG Export Plug-In . SVG Version: 6.00 Build 0)  -->
<svg version="1.1" id="Capa_1" xmlns="http://www.w3.org/2000/svg" xmlns:xlink="http://www.w3.org/1999/xlink" x="0px" y="0px"
	 viewBox="0 0 209.9 209.9" style="enable-background:new 0 0 209.9 209.9;" xml:space="preserve">
<style type="text/css">
	.st0{fill:#FFFFFF;}
</style>
<path class="st0" d="M197.4,96.9h-8.7h-7.4h0h-15.8H58.8H44.3c-0.3,2.6-0.5,5.3-0.5,8s0.2,5.4,0.5,8h14.5H105v53.1
	c5.5,0,10.9-0.8,16.1-2.2V113h44.5h15.8h0c-1.8,17.5-9.5,33.7-22.1,46.3c-10.6,10.6-23.8,17.7-38.2,20.8v0
	c-3.8,0.8-7.7,1.3-11.6,1.6c-0.1,0-0.3,0-0.4,0c-1.3,0.1-2.7,0.1-4,0.1v0c0,0,0,0-0.1,0c-20.5,0-39.8-8-54.3-22.5
	c-14.5-14.5-22.5-33.8-22.5-54.3c0-20.5,8-39.8,22.5-54.3c14.5-14.5,33.8-22.5,54.3-22.5c20.5,0,39.8,8,54.3,22.5
	c8.6,8.6,14.9,18.9,18.6,30.2h16.8c-4.2-15.6-12.3-29.8-24-41.5c-17.5-17.5-40.9-27.2-65.7-27.2c-24.8,0-48.1,9.7-65.7,27.2
	c-17.5,17.5-27.2,40.9-27.2,65.7c0,24.8,9.7,48.1,27.2,65.7c17.5,17.5,40.9,27.2,65.7,27.2c24.8,0,48.1-9.7,65.7-27.2
	c17.5-17.5,27.2-40.9,27.2-65.7C197.8,102.2,197.7,99.6,197.4,96.9z"/>
</svg>
