<?xml version="1.0" encoding="utf-8"?>
<!-- Generator: Adobe Illustrator 23.1.0, SVG Export Plug-In . SVG Version: 6.00 Build 0)  -->
<svg version="1.1" id="Capa_1" xmlns="http://www.w3.org/2000/svg" xmlns:xlink="http://www.w3.org/1999/xlink" x="0px" y="0px"
	 viewBox="0 0 1561 209.9" style="enable-background:new 0 0 1561 209.9;" xml:space="preserve">
<style type="text/css">
	.st0{stroke:#000000;stroke-width:4;stroke-miterlimit:10;}
</style>
<path class="st0" d="M350.3,107.3v44.8c0,6.2-1.2,12.1-3.6,17.6c-2.4,5.5-5.6,10.3-9.7,14.5c-4.1,4.2-8.9,7.5-14.5,10
	c-5.6,2.4-11.6,3.7-17.9,3.7c-6.2,0-12.1-1.2-17.6-3.7c-5.5-2.4-10.3-5.8-14.5-10c-4.2-4.2-7.5-9.1-10-14.5
	c-2.4-5.5-3.7-11.3-3.7-17.6h9.1c0,5,1,9.7,2.9,14.2c1.9,4.5,4.6,8.3,7.9,11.6c3.3,3.3,7.2,5.9,11.6,7.9c4.5,1.9,9.2,2.9,14.2,2.9
	c5.2,0,10.1-1,14.5-2.9c4.5-2,8.3-4.6,11.6-7.9c3.3-3.3,5.9-7.2,7.7-11.6c1.8-4.5,2.7-9.2,2.7-14.2v-18.3
	c-4.1,5.5-9.3,9.9-15.5,13.3c-6.2,3.4-13.2,5-21,5c-6.2,0-12.1-1.2-17.6-3.6c-5.5-2.4-10.3-5.6-14.5-9.7c-4.2-4.1-7.5-8.9-10-14.5
	c-2.4-5.5-3.7-11.6-3.7-18c0-6.3,1.2-12.3,3.7-17.9c2.4-5.6,5.8-10.5,10-14.5c4.2-4.1,9.1-7.3,14.5-9.7c5.5-2.4,11.3-3.6,17.6-3.6
	c6.3,0,12.3,1.2,17.9,3.6c5.6,2.4,10.5,5.6,14.5,9.7c4.1,4.1,7.3,8.9,9.7,14.5c2.4,5.6,3.6,11.6,3.6,17.9V107.3z M304.5,142.9
	c5.2,0,10.1-1,14.5-2.9c4.5-1.9,8.3-4.6,11.6-7.9c3.3-3.3,5.9-7.2,7.7-11.6c1.8-4.5,2.7-9.2,2.7-14.2c0-5-0.9-9.7-2.7-14.2
	c-1.8-4.5-4.4-8.3-7.7-11.6c-3.3-3.3-7.2-5.9-11.6-7.9c-4.5-1.9-9.3-2.9-14.5-2.9c-5,0-9.7,1-14.2,2.9c-4.5,2-8.3,4.6-11.6,7.9
	c-3.3,3.3-5.9,7.2-7.9,11.6c-2,4.5-2.9,9.2-2.9,14.2c0,5,1,9.7,2.9,14.2c1.9,4.5,4.6,8.3,7.9,11.6c3.3,3.3,7.2,5.9,11.6,7.9
	C294.8,142,299.5,142.9,304.5,142.9z"/>
<path class="st0" d="M412.5,142.9c7.8,0,14.7-2.1,20.7-6.2c6-4.1,10.4-9.7,13.2-16.6h10.1c-1.6,4.6-3.8,8.9-6.7,12.8
	c-2.9,3.9-6.2,7.3-10.1,10.1c-3.8,2.8-8.1,5-12.7,6.7c-4.6,1.6-9.5,2.5-14.5,2.5c-6.5,0-12.5-1.2-18-3.6c-5.6-2.4-10.4-5.6-14.5-9.7
	c-4.1-4.1-7.3-8.9-9.7-14.5c-2.4-5.5-3.6-11.6-3.6-18c0-6.3,1.2-12.3,3.6-17.9c2.4-5.6,5.6-10.5,9.7-14.5c4.1-4.1,8.9-7.3,14.5-9.7
	c5.5-2.4,11.6-3.6,18-3.6c6.3,0,12.3,1.2,17.9,3.6c5.6,2.4,10.5,5.6,14.5,9.7c4.1,4.1,7.3,8.9,9.7,14.5c2.4,5.6,3.6,11.6,3.6,17.9
	v4.6h-16.5h-65.9c0.7,4.6,2.2,8.9,4.3,12.8c2.1,3.9,4.8,7.3,8.1,10.1c3.3,2.8,7,5,11.1,6.7C403.5,142.1,407.8,142.9,412.5,142.9z
	 M412.5,69.8c-4.6,0-9,0.8-13.1,2.5c-4.1,1.6-7.8,3.9-11.1,6.7c-3.3,2.8-6,6.2-8.1,10.2c-2.1,4-3.6,8.2-4.3,12.7h73.2
	c-0.7-4.5-2.2-8.7-4.3-12.7c-2.1-4-4.8-7.3-8.1-10.2c-3.3-2.8-7-5-11.2-6.7C421.3,70.6,417,69.8,412.5,69.8z"/>
<path class="st0" d="M602.7,60.6c6.3,0,12.3,1.2,17.9,3.6c5.6,2.4,10.5,5.6,14.5,9.7c4.1,4.1,7.3,8.9,9.7,14.5
	c2.4,5.6,3.6,11.6,3.6,17.9v45.7h-9.1v-45.7c0-5-1-9.7-2.9-14.2c-2-4.5-4.6-8.3-7.9-11.6c-3.3-3.3-7.2-5.9-11.6-7.9
	c-4.5-1.9-9.2-2.9-14.2-2.9c-5,0-9.7,1-14.2,2.9c-4.5,2-8.3,4.6-11.6,7.9c-3.3,3.3-5.9,7.2-7.9,11.6c-2,4.5-2.9,9.2-2.9,14.2v45.7
	H557v-45.7c0-5-1-9.7-2.9-14.2c-2-4.5-4.6-8.3-7.9-11.6c-3.3-3.3-7.2-5.9-11.6-7.9c-4.5-1.9-9.2-2.9-14.2-2.9c-5,0-9.7,1-14.2,2.9
	c-4.5,2-8.3,4.6-11.6,7.9c-3.3,3.3-5.9,7.2-7.9,11.6c-2,4.5-2.9,9.2-2.9,14.2v45.7h-9.1v-45.7c0-6.3,1.2-12.3,3.7-17.9
	c2.4-5.6,5.8-10.5,10-14.5c4.2-4.1,9.1-7.3,14.5-9.7c5.5-2.4,11.3-3.6,17.6-3.6c4.5,0,8.9,0.6,13.1,1.9c4.2,1.3,8.1,3.1,11.6,5.4
	c3.5,2.3,6.7,5,9.5,8.1c2.8,3.1,5.1,6.5,7,10.2c1.8-3.7,4.2-7,7-10.2c2.9-3.1,6.1-5.8,9.7-8.1c3.6-2.3,7.5-4.1,11.6-5.4
	C594.1,61.3,598.3,60.6,602.7,60.6z"/>
<path class="st0" d="M793,60.6c6.3,0,12.3,1.2,17.9,3.6c5.6,2.4,10.5,5.6,14.5,9.7c4.1,4.1,7.3,8.9,9.7,14.5
	c2.4,5.6,3.6,11.6,3.6,17.9v45.7h-9.1v-45.7c0-5-1-9.7-2.9-14.2c-2-4.5-4.6-8.3-7.9-11.6c-3.3-3.3-7.2-5.9-11.6-7.9
	c-4.5-1.9-9.2-2.9-14.2-2.9c-5,0-9.7,1-14.2,2.9c-4.5,2-8.3,4.6-11.6,7.9c-3.3,3.3-5.9,7.2-7.9,11.6c-2,4.5-2.9,9.2-2.9,14.2v45.7
	h-9.1v-45.7c0-5-1-9.7-2.9-14.2c-2-4.5-4.6-8.3-7.9-11.6c-3.3-3.3-7.2-5.9-11.6-7.9c-4.5-1.9-9.2-2.9-14.2-2.9c-5,0-9.7,1-14.2,2.9
	c-4.5,2-8.3,4.6-11.6,7.9c-3.3,3.3-5.9,7.2-7.9,11.6c-2,4.5-2.9,9.2-2.9,14.2v45.7h-9.1v-45.7c0-6.3,1.2-12.3,3.7-17.9
	c2.4-5.6,5.8-10.5,10-14.5c4.2-4.1,9.1-7.3,14.5-9.7c5.5-2.4,11.3-3.6,17.6-3.6c4.5,0,8.9,0.6,13.1,1.9c4.2,1.3,8.1,3.1,11.6,5.4
	c3.5,2.3,6.7,5,9.5,8.1c2.8,3.1,5.1,6.5,7,10.2c1.8-3.7,4.2-7,7-10.2c2.9-3.1,6.1-5.8,9.7-8.1c3.6-2.3,7.5-4.1,11.6-5.4
	C784.3,61.3,788.6,60.6,793,60.6z"/>
<path class="st0" d="M900.9,60.6c6.3,0,12.3,1.2,17.9,3.6c5.6,2.4,10.5,5.6,14.5,9.7c4.1,4.1,7.3,8.9,9.7,14.5
	c2.4,5.6,3.6,11.6,3.6,17.9v45.7h-9.1v-18.3c-4.1,5.5-9.5,9.9-15.9,13.3c-6.5,3.4-13.4,5-20.7,5c-6.5,0-12.5-1.2-18-3.6
	c-5.6-2.4-10.4-5.6-14.5-9.7c-4.1-4.1-7.3-8.9-9.7-14.5c-2.4-5.5-3.6-11.6-3.6-18c0-6.3,1.2-12.3,3.6-17.9
	c2.4-5.6,5.6-10.5,9.7-14.5c4.1-4.1,8.9-7.3,14.5-9.7C888.4,61.8,894.4,60.6,900.9,60.6z M900.9,142.9c5,0,9.7-1,14.2-2.9
	c4.5-1.9,8.3-4.6,11.6-7.9c3.3-3.3,5.9-7.2,7.9-11.6c1.9-4.5,2.9-9.2,2.9-14.2c0-5-1-9.7-2.9-14.2c-2-4.5-4.6-8.3-7.9-11.6
	c-3.3-3.3-7.2-5.9-11.6-7.9c-4.5-1.9-9.2-2.9-14.2-2.9c-5,0-9.7,1-14.2,2.9c-4.5,2-8.3,4.6-11.6,7.9c-3.3,3.3-5.9,7.2-7.9,11.6
	c-2,4.5-2.9,9.2-2.9,14.2c0,5,1,9.7,2.9,14.2c1.9,4.5,4.6,8.3,7.9,11.6c3.3,3.3,7.2,5.9,11.6,7.9C891.2,142,895.9,142.9,900.9,142.9
	z"/>
<path class="st0" d="M1055.3,60.6c6.2,0,12.1,1.2,17.6,3.6c5.5,2.4,10.3,5.6,14.5,9.7c4.2,4.1,7.5,8.9,10,14.5
	c2.4,5.6,3.7,11.6,3.7,17.9c0,6.5-1.2,12.5-3.7,18c-2.4,5.6-5.8,10.4-10,14.5c-4.2,4.1-9.1,7.3-14.5,9.7c-5.5,2.4-11.3,3.6-17.6,3.6
	c-6.5,0-12.5-1.2-18-3.6c-5.6-2.4-10.4-5.6-14.5-9.7c-4.1-4.1-7.3-8.9-9.7-14.5c-2.4-5.5-3.6-11.6-3.6-18c0-6.3,1.2-12.3,3.6-17.9
	c2.4-5.6,5.6-10.5,9.7-14.5c4.1-4.1,8.9-7.3,14.5-9.7C1042.8,61.8,1048.8,60.6,1055.3,60.6z M1055.3,142.9c5,0,9.7-1,14.2-2.9
	c4.5-1.9,8.3-4.6,11.6-7.9c3.3-3.3,5.9-7.2,7.9-11.6c1.9-4.5,2.9-9.2,2.9-14.2c0-5-1-9.7-2.9-14.2c-2-4.5-4.6-8.3-7.9-11.6
	c-3.3-3.3-7.2-5.9-11.6-7.9c-4.5-1.9-9.2-2.9-14.2-2.9c-5,0-9.7,1-14.2,2.9c-4.5,2-8.3,4.6-11.6,7.9c-3.3,3.3-5.9,7.2-7.9,11.6
	c-2,4.5-2.9,9.2-2.9,14.2c0,5,1,9.7,2.9,14.2c1.9,4.5,4.6,8.3,7.9,11.6c3.3,3.3,7.2,5.9,11.6,7.9
	C1045.5,142,1050.3,142.9,1055.3,142.9z"/>
<path class="st0" d="M1162.6,60.6c6.2,0,12.1,1.2,17.6,3.6c5.5,2.4,10.3,5.6,14.5,9.7c4.2,4.1,7.5,8.9,10,14.5
	c2.4,5.6,3.7,11.6,3.7,17.9h-9.1c0-5-1-9.7-2.9-14.2c-2-4.5-4.6-8.3-7.9-11.6c-3.3-3.3-7.2-5.9-11.6-7.9c-4.5-1.9-9.2-2.9-14.2-2.9
	c-5,0-9.7,1-14.2,2.9c-4.5,2-8.3,4.6-11.6,7.9c-3.3,3.3-5.9,7.2-7.9,11.6c-2,4.5-2.9,9.2-2.9,14.2v45.7h-9.1v-45.7
	c0-6.3,1.2-12.3,3.6-17.9c2.4-5.6,5.6-10.5,9.7-14.5c4.1-4.1,8.9-7.3,14.5-9.7C1150.1,61.8,1156.1,60.6,1162.6,60.6z"/>
<path class="st0" d="M1224.2,106.3c0-6.3,1.2-12.3,3.6-17.9c2.4-5.6,5.6-10.5,9.7-14.5c4.1-4.1,8.9-7.3,14.5-9.7
	c5.5-2.4,11.6-3.6,18-3.6c7.3,0,14.2,1.7,20.7,5c6.5,3.4,11.8,7.8,15.9,13.3V44.2h9.1v62.2c0,6.5-1.2,12.5-3.6,18
	c-2.4,5.6-5.6,10.4-9.7,14.5c-4.1,4.1-8.9,7.3-14.5,9.7c-5.6,2.4-11.6,3.6-17.9,3.6c-6.5,0-12.5-1.2-18-3.6
	c-5.6-2.4-10.4-5.6-14.5-9.7c-4.1-4.1-7.3-8.9-9.7-14.5C1225.4,118.8,1224.2,112.8,1224.2,106.3z M1233.4,106.3c0,5,1,9.7,2.9,14.2
	c1.9,4.5,4.6,8.3,7.9,11.6s7.2,5.9,11.6,7.9c4.5,2,9.2,2.9,14.2,2.9c5,0,9.7-1,14.2-2.9c4.5-1.9,8.3-4.6,11.6-7.9
	c3.3-3.3,5.9-7.2,7.9-11.6c1.9-4.5,2.9-9.2,2.9-14.2c0-5-1-9.7-2.9-14.2c-2-4.5-4.6-8.3-7.9-11.6c-3.3-3.3-7.2-5.9-11.6-7.9
	c-4.5-1.9-9.2-2.9-14.2-2.9c-5,0-9.7,1-14.2,2.9c-4.5,2-8.3,4.6-11.6,7.9c-3.3,3.3-5.9,7.2-7.9,11.6
	C1234.3,96.6,1233.4,101.3,1233.4,106.3z"/>
<path class="st0" d="M1377.3,60.6c6.3,0,12.3,1.2,17.9,3.6c5.6,2.4,10.5,5.6,14.5,9.7c4.1,4.1,7.3,8.9,9.7,14.5
	c2.4,5.6,3.6,11.6,3.6,17.9v45.7h-9.1v-18.3c-4.1,5.5-9.5,9.9-15.9,13.3c-6.5,3.4-13.4,5-20.7,5c-6.5,0-12.5-1.2-18-3.6
	c-5.6-2.4-10.4-5.6-14.5-9.7c-4.1-4.1-7.3-8.9-9.7-14.5c-2.4-5.5-3.6-11.6-3.6-18c0-6.3,1.2-12.3,3.6-17.9
	c2.4-5.6,5.6-10.5,9.7-14.5c4.1-4.1,8.9-7.3,14.5-9.7C1364.8,61.8,1370.8,60.6,1377.3,60.6z M1377.3,142.9c5,0,9.7-1,14.2-2.9
	c4.5-1.9,8.3-4.6,11.6-7.9c3.3-3.3,5.9-7.2,7.9-11.6c1.9-4.5,2.9-9.2,2.9-14.2c0-5-1-9.7-2.9-14.2c-2-4.5-4.6-8.3-7.9-11.6
	c-3.3-3.3-7.2-5.9-11.6-7.9c-4.5-1.9-9.2-2.9-14.2-2.9c-5,0-9.7,1-14.2,2.9c-4.5,2-8.3,4.6-11.6,7.9c-3.3,3.3-5.9,7.2-7.9,11.6
	c-2,4.5-2.9,9.2-2.9,14.2c0,5,1,9.7,2.9,14.2c1.9,4.5,4.6,8.3,7.9,11.6c3.3,3.3,7.2,5.9,11.6,7.9
	C1367.5,142,1372.3,142.9,1377.3,142.9z"/>
<path class="st0" d="M1494.7,106.5l43,43l-6.4,6.4l-43-43l-43,43l-6.4-6.4l43-43l-43-43l6.4-6.4l43,43l43-43l6.4,6.4L1494.7,106.5z"
	/>
<path d="M190.1,96.9h-7.4h0h-15.8H60.2H47.7c-0.3,2.6-0.5,5.3-0.5,8s0.2,5.4,0.5,8h12.5h46.2v51.1c5.5,0,10.9-0.8,16.1-2.2V113h44.5
	h15.8h0c-1.8,17.5-9.5,33.7-22.1,46.3C150,169.9,136.8,177,122.5,180v0c-3.8,0.8-7.7,1.3-11.6,1.6c-0.1,0-0.3,0-0.4,0
	c-1.3,0.1-2.7,0.1-4,0.1v0c0,0,0,0-0.1,0c-20.5,0-39.8-8-54.3-22.5c-14.5-14.5-22.5-33.8-22.5-54.3c0-20.5,8-39.8,22.5-54.3
	c14.5-14.5,33.8-22.5,54.3-22.5c20.5,0,39.8,8,54.3,22.5c8.1,8.1,14.2,17.7,17.9,28.2h16.9C191.1,64,183.2,50.5,172,39.3
	c-17.5-17.5-40.9-27.2-65.7-27.2c-24.8,0-48.1,9.7-65.7,27.2c-17.5,17.5-27.2,40.9-27.2,65.7c0,24.8,9.7,48.1,27.2,65.7
	c17.5,17.5,40.9,27.2,65.7,27.2c24.8,0,48.1-9.7,65.7-27.2c17.5-17.5,27.2-40.9,27.2-65.7c0-2.7-0.1-5.4-0.4-8H190.1z"/>
</svg>
